<svg width="1096" height="796" viewBox="0 0 1096 796" fill="none" xmlns="http://www.w3.org/2000/svg">
<g opacity="0.15" clip-path="url(#clip0_1689_13198)">
<rect x="0.41748" y="194.519" width="994.463" height="612.368" transform="rotate(-11.28 0.41748 194.519)" fill="#006F3A"/>
<path d="M497.87 84.0055L794.702 194.436L708.914 441.415L476.107 425.501L497.87 84.0055Z" fill="#FFC50E"/>
<path d="M899.371 358.253L1196.2 468.684L1110.41 715.662L877.608 699.748L899.371 358.253Z" fill="#FFC50E"/>
<path d="M189.877 316.249C189.877 316.249 507.19 496.754 460.392 660.662C436.887 742.988 335.732 771.361 335.732 771.361L225.812 576.699L189.877 316.249Z" fill="#FFC50E"/>
<path d="M43.0042 443.42L222.051 549.581L301.978 651.278L381.905 752.975L115.351 806.141L43.0042 443.42Z" fill="#FF8200"/>
<path d="M241.13 61.3364L423.861 185.968L506.843 302.981L589.825 419.994L323.271 473.16L241.13 61.3364Z" fill="#DD2235"/>
<path d="M815.708 2.49393L992.43 -32.7545L1090.33 305.342L1084.08 538.809L781.657 218.684L815.708 2.49393Z" fill="#DD2235"/>
<path d="M786.602 195.111C786.602 195.111 733.404 397.741 798.119 495.852C847.306 570.422 989.102 621.749 989.102 621.749L604.101 637.838L786.602 195.111Z" fill="#006DCA"/>
<path d="M203.713 311.372L236.978 559.544L39.3769 457.084L12.7939 323.807L203.713 311.372Z" fill="#006DCA"/>
<path d="M501.94 89.0756L489.417 327.087C489.417 327.087 380.173 296.662 344.795 241.352C316.198 196.643 318.212 108.075 318.212 108.075L501.94 89.0756Z" fill="#006DCA"/>
</g>
<defs>
<clipPath id="clip0_1689_13198">
<rect width="994.46" height="612.37" fill="white" transform="translate(0.41748 194.519) rotate(-11.28)"/>
</clipPath>
</defs>
</svg>
