<svg width="1096" height="796" viewBox="0 0 1096 796" fill="none" xmlns="http://www.w3.org/2000/svg">
<g opacity="0.2" clip-path="url(#clip0_2715_35930)">
<rect y="194.503" width="994.463" height="612.368" transform="rotate(-11.2789 0 194.503)" fill="white"/>
<path d="M470.451 89.3839L674.549 165.319L615.558 335.139L455.483 324.193L470.451 89.3839Z" fill="#1D45A2"/>
<path d="M898.951 358.253L1195.78 468.69L1109.99 715.666L877.182 699.748L898.951 358.253Z" fill="white"/>
<path d="M189.457 316.236C189.457 316.236 506.768 496.748 459.966 660.654C436.459 742.98 335.304 771.351 335.304 771.351L225.388 576.687L189.457 316.236Z" fill="white"/>
<path d="M42.582 443.404L221.627 549.569L301.552 651.267L381.478 752.966L114.923 806.127L42.582 443.404Z" fill="#1D45A2"/>
<path d="M240.715 61.3247L423.443 185.96L506.423 302.974L589.403 419.989L322.848 473.15L240.715 61.3247Z" fill="#1D45A2"/>
<path d="M815.294 2.49285L992.017 -32.7523L1089.91 305.345L1083.66 538.813L781.239 218.682L815.294 2.49285Z" fill="#1D45A2"/>
<path d="M786.184 195.109C786.184 195.109 732.983 397.738 797.696 495.851C846.882 570.421 988.676 621.751 988.676 621.751L603.675 637.833L786.184 195.109Z" fill="#1D45A2"/>
<path d="M203.293 311.359L236.554 559.532L38.9546 457.068L12.374 323.791L203.293 311.359Z" fill="#1D45A2"/>
<path d="M501.524 89.0686L488.997 327.08C488.997 327.08 379.754 296.653 344.377 241.342C315.78 196.633 317.797 108.065 317.797 108.065L501.524 89.0686Z" fill="white"/>
</g>
<defs>
<clipPath id="clip0_2715_35930">
<rect width="994.463" height="612.368" fill="white" transform="translate(0 194.503) rotate(-11.2789)"/>
</clipPath>
</defs>
</svg>
