<svg xmlns="http://www.w3.org/2000/svg" width="15" height="28" viewBox="0 0 15 28" fill="none">
  <path d="M1.39029 14.4613L14.4612 1.39035C14.5768 1.2748 14.6373 1.11369 14.6295 0.942469C14.6217 0.771249 14.5462 0.603944 14.4196 0.477357C14.293 0.35077 14.1257 0.275271 13.9545 0.26747C13.7833 0.259669 13.6222 0.320203 13.5066 0.435757L0.435698 13.5067C0.320143 13.6222 0.259609 13.7833 0.26741 13.9546C0.275211 14.1258 0.35071 14.2931 0.477297 14.4197C0.603884 14.5463 0.77119 14.6218 0.94241 14.6296C1.11363 14.6374 1.27474 14.5768 1.39029 14.4613Z" fill="black"/>
  <path d="M0.435693 14.3903L13.5066 27.4612C13.6222 27.5768 13.7833 27.6373 13.9545 27.6295C14.1257 27.6217 14.293 27.5462 14.4196 27.4196C14.5462 27.293 14.6217 27.1257 14.6295 26.9545C14.6373 26.7833 14.5768 26.6222 14.4612 26.5066L1.39029 13.4357C1.27473 13.3201 1.11363 13.2596 0.942406 13.2674C0.771186 13.2752 0.60388 13.3507 0.477293 13.4773C0.350706 13.6039 0.275207 13.7712 0.267406 13.9424C0.259604 14.1136 0.320139 14.2747 0.435693 14.3903Z" fill="black"/>
</svg>