<svg width="21" height="20" viewBox="0 0 21 20" fill="none" xmlns="http://www.w3.org/2000/svg">
<path d="M9.01036 12.9278L9.01115 12.9285C9.0777 12.9862 9.16382 13.0161 9.25177 13.0121C9.33971 13.0082 9.42279 12.9706 9.48389 12.9072L9.48421 12.9069C10.7578 11.5744 12.8123 9.37945 14.8651 7.18623L14.871 7.17992C16.9214 4.98922 18.9694 2.80108 20.2372 1.47466C20.2867 1.42621 20.3205 1.36392 20.334 1.29591L20.2212 1.27348L20.334 1.2959C20.3477 1.22706 20.34 1.15567 20.3119 1.09133C20.2838 1.02699 20.2367 0.97279 20.1769 0.936004C20.1176 0.899491 20.0484 0.881642 19.9784 0.885377C19.889 0.889159 19.8045 0.927682 19.743 0.992779L19.8266 1.07175L19.7435 0.992296C18.4875 2.30637 16.4829 4.44967 14.4694 6.6029L14.3843 6.69388C12.4378 8.77541 10.4927 10.8555 9.21547 12.1959L5.57606 8.9826C5.54372 8.95008 5.50518 8.92434 5.4627 8.90692C5.41868 8.88887 5.37138 8.88015 5.32381 8.88132C5.27623 8.88249 5.22942 8.89353 5.18634 8.91372C5.14326 8.93391 5.10483 8.96283 5.07349 8.99864C5.04216 9.03445 5.0186 9.07637 5.0043 9.12176C4.99001 9.16714 4.98529 9.215 4.99044 9.26231C4.9956 9.30961 5.01051 9.35534 5.03425 9.39658C5.05707 9.43622 5.08754 9.47088 5.12387 9.49856L9.01036 12.9278ZM14.8464 3.18111L14.8459 3.18177L14.8579 3.18848C14.9308 3.22942 15.0162 3.24242 15.098 3.22503C15.1798 3.20763 15.2525 3.16104 15.3025 3.09397C15.3525 3.02689 15.3763 2.94392 15.3696 2.86054C15.3628 2.77716 15.326 2.69908 15.2659 2.6409L15.2601 2.63533L15.2537 2.63061C13.7135 1.50723 11.8767 0.913792 10.0245 0.892393C8.91293 0.87955 7.79855 1.07445 6.72898 1.47902C2.06349 3.24376 -0.293997 8.4597 1.4708 13.1254C3.23555 17.7909 8.4515 20.1484 13.1172 18.3836C17.7809 16.6195 20.1384 11.4068 18.3773 6.74241C18.3649 6.69835 18.3439 6.65719 18.3154 6.62133C18.2855 6.58368 18.2481 6.55272 18.2055 6.53041C18.1629 6.50811 18.1161 6.49495 18.0682 6.4918C18.0202 6.48865 17.9721 6.49559 17.927 6.51213C17.8819 6.52868 17.8407 6.55448 17.8061 6.58789L17.886 6.67058L17.8061 6.58789C17.7716 6.6213 17.7444 6.66157 17.7263 6.70612C17.7082 6.75066 17.6997 6.7985 17.7012 6.84654C17.7027 6.89274 17.7134 6.93815 17.7328 6.98007C19.3621 11.2945 17.1925 16.1076 12.8785 17.7394C8.56295 19.3718 3.74725 17.2021 2.11495 12.8867C0.482612 8.57119 2.65229 3.75549 6.96767 2.12318C9.60414 1.12593 12.5694 1.52026 14.8464 3.18111Z" fill="white" stroke="white" stroke-width="0.23"/>
</svg>
