<svg width="3" height="29" viewBox="0 0 3 29" fill="none" xmlns="http://www.w3.org/2000/svg">
<g id="Dots">
<path id="Vector" d="M0.000712026 27.4001L0.000981185 27.3912V27.3823C0.000981185 26.5521 0.668884 25.8823 1.50052 25.8823C2.3321 25.8823 3 26.5521 3 27.3823C3 28.2126 2.3321 28.8823 1.50052 28.8823C0.652126 28.8823 -0.0250613 28.2003 0.000712026 27.4001Z" fill="black"/>
<path id="Vector_2" d="M0.000712026 14.4589L0.000981185 14.4501V14.4412C0.000981185 13.6109 0.668884 12.9412 1.50052 12.9412C2.3321 12.9412 3 13.6109 3 14.4412C3 15.2714 2.3321 15.9412 1.50052 15.9412C0.652126 15.9412 -0.0250613 15.2592 0.000712026 14.4589Z" fill="black"/>
<path id="Vector_3" d="M0.000712026 1.51777L0.000981185 1.5089V1.50001C0.000981185 0.669755 0.668884 0 1.50052 0C2.3321 0 3 0.669755 3 1.50001C3 2.33024 2.3321 3 1.50052 3C0.652126 3 -0.0250613 2.31799 0.000712026 1.51777Z" fill="black"/>
</g>
</svg>
