<svg xmlns="http://www.w3.org/2000/svg" width="17" height="23" viewBox="0 0 17 23" fill="none">
  <path d="M1.48179 0C0.676471 0 0 0.676471 0 1.48179V22.3235C0 22.5812 0.161065 22.8389 0.418768 22.9356C0.676471 23.0322 0.966387 22.9356 1.12745 22.7423L8.08543 14.3025L15.0434 22.7745C15.1723 22.9356 15.3655 23 15.5266 23C15.591 23 15.6877 23 15.7521 22.9678C16.0098 22.8711 16.1709 22.6457 16.1709 22.3557V1.51401C16.1709 0.708683 15.4944 0.0322127 14.6891 0.0322127H1.48179V0ZM14.9146 1.51401V20.5518L8.56863 12.8529C8.43978 12.6919 8.27871 12.6275 8.08543 12.6275C7.89216 12.6275 7.69888 12.7241 7.60224 12.8529L1.2563 20.5518V1.51401C1.2563 1.41737 1.35294 1.32073 1.44958 1.32073H14.6891C14.8179 1.28852 14.9146 1.38515 14.9146 1.51401Z" fill="black"/>
</svg>