<svg width="23" height="22" viewBox="0 0 23 22" fill="none" xmlns="http://www.w3.org/2000/svg">
<path d="M1.61074 21.295L21.2951 1.61068C21.4691 1.43666 21.5857 1.21948 21.6193 1.00692C21.6528 0.794354 21.6005 0.603822 21.4739 0.477235C21.3474 0.350648 21.1568 0.298375 20.9443 0.331916C20.7317 0.365456 20.5145 0.482063 20.3405 0.656083L0.656145 20.3404C0.482125 20.5145 0.365518 20.7316 0.331978 20.9442C0.298437 21.1568 0.35071 21.3473 0.477297 21.4739C0.603884 21.6005 0.794416 21.6527 1.00698 21.6192C1.21954 21.5857 1.43672 21.4691 1.61074 21.295Z" fill="black"/>
<path d="M0.751356 1.61074L20.4357 21.2951C20.6097 21.4691 20.8269 21.5857 21.0395 21.6193C21.252 21.6528 21.4426 21.6005 21.5692 21.4739C21.6957 21.3474 21.748 21.1568 21.7145 20.9443C21.6809 20.7317 21.5643 20.5145 21.3903 20.3405L1.70595 0.656145C1.53193 0.482125 1.31475 0.365518 1.10219 0.331978C0.889626 0.298437 0.699095 0.35071 0.572508 0.477297C0.445921 0.603884 0.393648 0.794416 0.427188 1.00698C0.460729 1.21954 0.577335 1.43672 0.751356 1.61074Z" fill="black"/>
</svg>
