<svg width="29" height="27" viewBox="0 0 29 27" fill="none" xmlns="http://www.w3.org/2000/svg">
<g id="Group">
<g id="Group_2">
<path id="Vector" d="M15.0807 2.57643C16.5143 2.86798 17.5942 4.13709 17.5942 5.65528C17.5942 7.17431 16.5136 8.44263 15.0807 8.7341V25.7629C15.0807 26.11 14.7994 26.3913 14.4524 26.3913C14.1053 26.3913 13.824 26.11 13.824 25.7629V8.73412C12.3905 8.44257 11.3106 7.17346 11.3106 5.65528C11.3106 4.13625 12.3912 2.86792 13.824 2.57645V0.628364C13.824 0.281328 14.1053 0 14.4524 0C14.7994 0 15.0807 0.281328 15.0807 0.628364V2.57643ZM12.5673 5.65528C12.5673 6.69464 13.4123 7.54037 14.4524 7.54037C15.4917 7.54037 16.3375 6.6953 16.3375 5.65528C16.3375 4.61591 15.4924 3.77018 14.4524 3.77018C13.413 3.77018 12.5673 4.61525 12.5673 5.65528ZM3.77018 17.6572C5.20372 17.9487 6.28364 19.2178 6.28364 20.736C6.28364 22.255 5.20304 23.5234 3.77018 23.8148V25.7629C3.77018 26.11 3.48886 26.3913 3.14182 26.3913C2.79478 26.3913 2.51346 26.11 2.51346 25.7629V23.8148C1.07992 23.5233 0 22.2542 0 20.736C0 19.217 1.0806 17.9487 2.51346 17.6572V0.628364C2.51346 0.281328 2.79478 0 3.14182 0C3.48886 0 3.77018 0.281328 3.77018 0.628364V17.6572ZM1.25673 20.736C1.25673 21.7754 2.1018 22.6211 3.14182 22.6211C4.18119 22.6211 5.02691 21.776 5.02691 20.736C5.02691 19.6966 4.18184 18.8509 3.14182 18.8509C2.10245 18.8509 1.25673 19.696 1.25673 20.736ZM26.3913 12.0019C27.8248 12.2934 28.9047 13.5626 28.9047 15.0807C28.9047 16.5998 27.8241 17.8681 26.3913 18.1596V25.7629C26.3913 26.11 26.11 26.3913 25.7629 26.3913C25.4159 26.3913 25.1346 26.11 25.1346 25.7629V18.1596C23.701 17.868 22.6211 16.5989 22.6211 15.0807C22.6211 13.5617 23.7017 12.2934 25.1346 12.0019V0.628364C25.1346 0.281328 25.4159 0 25.7629 0C26.11 0 26.3913 0.281328 26.3913 0.628364V12.0019ZM23.8778 15.0807C23.8778 16.1201 24.7229 16.9658 25.7629 16.9658C26.8023 16.9658 27.648 16.1208 27.648 15.0807C27.648 14.0414 26.8029 13.1956 25.7629 13.1956C24.7236 13.1956 23.8778 14.0407 23.8778 15.0807Z" fill="black"/>
</g>
</g>
</svg>
