<svg width="1065" height="1042" viewBox="0 0 1065 1042" fill="none" xmlns="http://www.w3.org/2000/svg">
<g opacity="0.15" clip-path="url(#clip0_2419_24386)">
<rect y="545.194" width="994.463" height="612.368" transform="rotate(-40.15 0 545.194)" fill="#006F3A"/>
<path d="M382.27 208.233L695.529 161.622L739.649 419.326L528.093 517.794L382.27 208.233Z" fill="#FFC50E"/>
<path d="M866.284 254.542L1179.54 207.931L1223.66 465.635L1012.11 564.103L866.284 254.542Z" fill="#FFC50E"/>
<path d="M224.687 560.319C224.687 560.319 589.717 565.185 627.873 731.316C647.038 814.76 572.153 888.447 572.153 888.447L381.908 771.049L224.687 560.319Z" fill="#FFC50E"/>
<path d="M157.469 742.599L365.52 749.118L484.616 799.585L603.712 850.053L395.955 1025.31L157.469 742.599Z" fill="#FF8200"/>
<path d="M146.493 312.342L366.688 333.257L495.854 395.662L625.019 458.067L417.263 633.323L146.493 312.342Z" fill="#DD2235"/>
<path d="M621.25 -16.6073L758.99 -132.801L1007.97 116.006L1115.21 323.477L695.813 189.154L621.25 -16.6073Z" fill="#DD2235"/>
<path d="M688.761 166.124C688.761 166.124 740.009 369.256 844.052 423.928C923.13 465.481 1072.08 441.967 1072.08 441.967L742.701 641.944L688.761 166.124Z" fill="#006DCA"/>
<path d="M234.449 549.368L383.403 750.636L160.89 756.316L73.2614 652.438L234.449 549.368Z" fill="#006DCA"/>
<path d="M388.282 210.708L492.233 425.186C492.233 425.186 381.876 451.287 324.19 419.933C277.56 394.588 236.562 316.055 236.562 316.055L388.282 210.708Z" fill="#006DCA"/>
</g>
<defs>
<clipPath id="clip0_2419_24386">
<rect width="845.537" height="649.136" fill="white" transform="translate(0 545.194) rotate(-40.15)"/>
</clipPath>
</defs>
</svg>
