<svg width="18" height="12" viewBox="0 0 18 12" fill="none" xmlns="http://www.w3.org/2000/svg">
<g id="Group">
<path id="Vector" d="M17.1478 6.24852C17.1908 6.14542 17.1908 6.02515 17.1478 5.92206C17.1264 5.87051 17.0963 5.82326 17.0533 5.7803L11.8987 0.625645C11.7311 0.458118 11.4605 0.458118 11.293 0.625645C11.1255 0.793171 11.1255 1.06379 11.293 1.23132L15.7131 5.65573H0.429555C0.1933 5.65573 0 5.84903 0 6.08529C0 6.32154 0.1933 6.51484 0.429555 6.51484H15.7174L11.293 10.935C11.1255 11.1025 11.1255 11.3731 11.293 11.5406C11.3789 11.6265 11.4863 11.6695 11.598 11.6695C11.7097 11.6695 11.8171 11.6265 11.903 11.5449L17.0576 6.39027C17.0963 6.35161 17.1264 6.30006 17.1478 6.24852Z" fill="black"/>
</g>
</svg>
