<svg width="111" height="46" viewBox="0 0 111 46" fill="none" xmlns="http://www.w3.org/2000/svg">
<path d="M30.0813 28.0888L6.82751 27.0544C6.82751 27.0544 35.9761 46.6146 30.4713 37.5039C24.9664 28.3932 30.0813 28.0888 30.0813 28.0888Z" fill="#141414"/>
<rect width="66.4263" height="29.4078" rx="14.7039" fill="#141414"/>
<path d="M10.7326 22.8814L12.0034 10.6075C12.0541 10.1368 12.0795 9.77476 12.0795 9.52132C12.0795 9.10133 11.96 8.78271 11.721 8.56548C11.4821 8.34824 11.0512 8.23238 10.4285 8.2179L10.548 7.81601H16.0658L15.9463 8.2179C15.2077 8.21065 14.7008 8.34462 14.4256 8.61978C14.1577 8.88771 13.9731 9.55028 13.8717 10.6075L13.057 18.5584L18.6509 9.92321C18.6581 9.77838 18.6618 9.65528 18.6618 9.5539C18.6618 9.14839 18.5423 8.83702 18.3033 8.61978C18.0644 8.40255 17.5502 8.26858 16.7609 8.2179L16.8478 7.81601H22.811L22.6915 8.2179C22.0036 8.22514 21.5402 8.28307 21.3012 8.39169C21.1274 8.47134 20.979 8.60168 20.8559 8.78271C20.74 8.9565 20.6459 9.25701 20.5734 9.68425C20.5517 9.80735 20.4612 10.6473 20.3019 12.2042C20.1498 13.7611 19.9181 15.8791 19.6067 18.5584L24.2665 11.4765C24.7734 10.7016 25.092 10.1585 25.2223 9.84717C25.3527 9.5358 25.4178 9.2715 25.4178 9.05426C25.4178 8.8515 25.3309 8.67409 25.1571 8.52203C24.9834 8.36272 24.6865 8.26134 24.2665 8.2179L24.3534 7.81601H28.7198L28.6112 8.2179C28.2274 8.24686 27.8871 8.341 27.5902 8.5003C27.2933 8.65961 26.9421 8.96374 26.5366 9.4127C26.3049 9.67338 25.827 10.3613 25.1028 11.4765L17.7059 22.8814H17.304L18.4988 11.4765L11.1019 22.8814H10.7326ZM34.4983 16.1145C34.4983 17.2006 34.2087 18.276 33.6294 19.3404C33.0573 20.4049 32.2572 21.2485 31.2289 21.8712C30.2007 22.494 29.2014 22.8054 28.2311 22.8054C27.239 22.8054 26.428 22.4904 25.798 21.8604C25.1753 21.2232 24.8639 20.4013 24.8639 19.3947C24.8639 18.3303 25.168 17.2622 25.7763 16.1905C26.3918 15.1188 27.21 14.2716 28.2311 13.6488C29.2593 13.0261 30.2514 12.7147 31.2072 12.7147C32.163 12.7147 32.9487 13.0297 33.5642 13.6597C34.187 14.2897 34.4983 15.1079 34.4983 16.1145ZM32.6953 15.365C32.6953 14.6916 32.5287 14.1774 32.1956 13.8226C31.8698 13.4605 31.4462 13.2795 30.9248 13.2795C29.8603 13.2795 28.8791 14.0435 27.9812 15.5714C27.0906 17.092 26.6452 18.6054 26.6452 20.1116C26.6452 20.7995 26.819 21.3318 27.1666 21.7083C27.5142 22.0776 27.9523 22.2623 28.4809 22.2623C29.5019 22.2623 30.4577 21.5056 31.3484 19.9921C32.2463 18.4715 32.6953 16.9291 32.6953 15.365ZM36.4969 13.323L40.2443 12.7147L38.6802 17.9936C39.9474 15.8284 41.0987 14.315 42.1342 13.4533C42.7208 12.9609 43.1987 12.7147 43.568 12.7147C43.8069 12.7147 43.9952 12.7871 44.1328 12.9319C44.2704 13.0695 44.3392 13.2723 44.3392 13.5402C44.3392 14.0181 44.2161 14.4743 43.9699 14.9088C43.7961 15.2347 43.5463 15.3976 43.2204 15.3976C43.0539 15.3976 42.909 15.3433 42.7859 15.2347C42.6701 15.126 42.5977 14.9595 42.5687 14.735C42.5542 14.5974 42.5216 14.5069 42.4709 14.4635C42.413 14.4055 42.3442 14.3766 42.2646 14.3766C42.1415 14.3766 42.0256 14.4055 41.917 14.4635C41.7287 14.5648 41.4427 14.8472 41.0589 15.3107C40.4579 16.0203 39.8062 16.94 39.1038 18.0696C38.7996 18.5475 38.5389 19.087 38.3217 19.688C38.0176 20.5135 37.8438 21.0095 37.8003 21.1761L37.4528 22.5447H35.7909L37.8003 15.7995C38.0321 15.0174 38.1479 14.4598 38.1479 14.1267C38.1479 13.9964 38.0936 13.8878 37.985 13.8009C37.8402 13.685 37.6483 13.6271 37.4093 13.6271C37.2573 13.6271 36.9785 13.6597 36.573 13.7249L36.4969 13.323ZM55.2119 7.09913L51.4754 19.9161C51.2727 20.6113 51.1713 21.0675 51.1713 21.2847C51.1713 21.3571 51.2002 21.4259 51.2582 21.4911C51.3233 21.5562 51.3885 21.5888 51.4537 21.5888C51.5478 21.5888 51.6601 21.5418 51.7904 21.4476C52.0366 21.2738 52.4494 20.8394 53.0287 20.1442L53.398 20.3723C52.8766 21.0964 52.348 21.683 51.8121 22.1319C51.2835 22.5809 50.7875 22.8054 50.3241 22.8054C50.0779 22.8054 49.8751 22.7185 49.7158 22.5447C49.5565 22.3709 49.4768 22.1247 49.4768 21.8061C49.4768 21.3933 49.5855 20.8394 49.8027 20.1442L50.2263 18.7973C49.1763 20.4194 48.2205 21.5418 47.3588 22.1645C46.765 22.5917 46.1966 22.8054 45.6535 22.8054C45.1031 22.8054 44.6216 22.5628 44.2088 22.0776C43.8033 21.5852 43.6006 20.919 43.6006 20.079C43.6006 19.0001 43.9445 17.8487 44.6324 16.625C45.3204 15.4012 46.2291 14.4055 47.3588 13.638C48.2494 13.0225 49.0677 12.7147 49.8136 12.7147C50.2046 12.7147 50.5413 12.7944 50.8237 12.9537C51.1061 13.113 51.3849 13.3773 51.6601 13.7466L52.7245 9.96665C52.8042 9.69873 52.8694 9.48511 52.92 9.3258C53.0069 9.03616 53.0504 8.79719 53.0504 8.60892C53.0504 8.45686 52.9961 8.33014 52.8875 8.22876C52.7354 8.10566 52.5399 8.04411 52.3009 8.04411C52.1344 8.04411 51.8592 8.06945 51.4754 8.12014V7.71825L55.2119 7.09913ZM51.1821 14.811C51.1821 14.3476 51.0482 13.9747 50.7803 13.6923C50.5123 13.4099 50.172 13.2687 49.7592 13.2687C48.8468 13.2687 47.8946 14.0217 46.9026 15.5279C45.9178 17.0341 45.4254 18.4751 45.4254 19.8509C45.4254 20.394 45.5448 20.8104 45.7838 21.1001C46.0228 21.3825 46.3088 21.5237 46.6419 21.5237C47.395 21.5237 48.34 20.709 49.4768 19.0797C50.6137 17.4505 51.1821 16.0276 51.1821 14.811Z" fill="white"/>
<path d="M81.1921 8.66323V14.7133H81.6157C82.2674 14.7133 82.7997 14.6155 83.2124 14.42C83.6252 14.2245 83.9728 13.895 84.2552 13.4316C84.5448 12.9681 84.7331 12.3418 84.82 11.5525H85.2001V18.9494H84.82C84.6824 17.5518 84.3059 16.6322 83.6904 16.1905C83.0821 15.7415 82.3906 15.5171 81.6157 15.5171H81.1921V20.0247C81.1921 20.7778 81.232 21.2485 81.3116 21.4368C81.3985 21.625 81.5614 21.7916 81.8004 21.9364C82.0466 22.074 82.3761 22.1428 82.7888 22.1428H83.2776V22.5447H75.5765V22.1428H76.0653C76.4926 22.1428 76.8365 22.0668 77.0972 21.9147C77.2855 21.8133 77.4303 21.6395 77.5317 21.3933C77.6113 21.2195 77.6512 20.7633 77.6512 20.0247V10.336C77.6512 9.58287 77.6113 9.11219 77.5317 8.92392C77.452 8.73564 77.2891 8.57272 77.0429 8.43513C76.8039 8.29031 76.4781 8.2179 76.0653 8.2179H75.5765V7.81601H88.0025V12.0413H87.5572C87.4558 11.0492 87.1951 10.3142 86.7751 9.83631C86.3624 9.35839 85.7613 9.02167 84.9721 8.82616C84.5376 8.71754 83.7338 8.66323 82.5607 8.66323H81.1921ZM94.2155 12.0847C95.0989 12.0847 95.9208 12.3128 96.6811 12.769C97.4415 13.2252 98.0171 13.8733 98.4082 14.7133C98.8064 15.5533 99.0056 16.4729 99.0056 17.4722C99.0056 18.9132 98.6399 20.1189 97.9085 21.0892C97.0251 22.2623 95.8049 22.8488 94.2481 22.8488C92.7202 22.8488 91.5435 22.313 90.718 21.2413C89.8925 20.1696 89.4797 18.9277 89.4797 17.5156C89.4797 16.0602 89.8997 14.7929 90.7397 13.714C91.5869 12.6278 92.7455 12.0847 94.2155 12.0847ZM94.2589 12.8559C93.8896 12.8559 93.571 12.9971 93.3031 13.2795C93.0424 13.5547 92.8686 14.105 92.7817 14.9305C92.7021 15.7488 92.6622 16.8893 92.6622 18.352C92.6622 19.1268 92.7129 19.8509 92.8143 20.5244C92.894 21.0385 93.0641 21.4295 93.3248 21.6975C93.5855 21.9654 93.8824 22.0993 94.2155 22.0993C94.5413 22.0993 94.8129 22.0088 95.0301 21.8278C95.3125 21.5816 95.5008 21.2376 95.5949 20.7959C95.7398 20.108 95.8122 18.7177 95.8122 16.625C95.8122 15.394 95.7434 14.5504 95.6058 14.0942C95.4682 13.6307 95.2655 13.294 94.9975 13.084C94.8093 12.9319 94.5631 12.8559 94.2589 12.8559ZM104.762 12.3888V14.6916C105.436 13.6416 106.026 12.9464 106.533 12.6061C107.04 12.2585 107.528 12.0847 107.999 12.0847C108.405 12.0847 108.727 12.2114 108.966 12.4649C109.212 12.7111 109.335 13.0623 109.335 13.5185C109.335 14.0036 109.216 14.3802 108.977 14.6481C108.745 14.916 108.463 15.05 108.13 15.05C107.746 15.05 107.413 14.9269 107.13 14.6807C106.848 14.4345 106.681 14.2969 106.631 14.2679C106.558 14.2245 106.475 14.2028 106.381 14.2028C106.171 14.2028 105.972 14.2824 105.783 14.4417C105.486 14.6879 105.262 15.0391 105.11 15.4953C104.878 16.1977 104.762 16.9725 104.762 17.8198V20.1551L104.773 20.7633C104.773 21.1761 104.799 21.4404 104.849 21.5562C104.936 21.7518 105.063 21.8966 105.229 21.9907C105.403 22.0776 105.693 22.1319 106.098 22.1537V22.5447H100.613V22.1537C101.055 22.1174 101.352 21.998 101.504 21.7952C101.663 21.5852 101.743 21.0385 101.743 20.1551V14.5395C101.743 13.9602 101.714 13.5909 101.656 13.4316C101.583 13.2288 101.478 13.0804 101.341 12.9862C101.203 12.8921 100.961 12.8269 100.613 12.7907V12.3888H104.762Z" fill="#141414"/>
<line x1="58.3931" y1="15.4525" x2="73.5321" y2="15.4525" stroke="white" stroke-width="0.60865"/>
<line x1="66.426" y1="15.4525" x2="73.5321" y2="15.4525" stroke="#141414" stroke-width="0.60865"/>
</svg>
