<svg xmlns="http://www.w3.org/2000/svg" width="44" height="70" viewBox="0 0 44 70" fill="none">
  <path d="M21.9912 48.706C29.1093 48.706 34.8643 42.951 34.8643 35.833V13.8731C34.8643 6.75501 29.1093 1 21.9912 1C14.8732 1 9.11816 6.75501 9.11816 13.8731V35.833C9.11816 42.951 14.8732 48.706 21.9912 48.706Z" fill="#979797"/>
  <path d="M41.9822 36.3631C41.9822 35.3029 41.1492 34.47 40.0891 34.47C39.029 34.47 38.196 35.3029 38.196 36.3631C38.196 44.9956 30.9265 52.0379 21.9911 52.0379C13.0557 52.0379 5.78619 44.9956 5.78619 36.3631C5.78619 35.3029 4.95323 34.47 3.8931 34.47C2.83296 34.47 2 35.3029 2 36.3631C2 46.5101 9.951 54.8397 20.098 55.7484V65.2138H14.2673C13.2071 65.2138 12.3742 66.0468 12.3742 67.1069C12.3742 68.1671 13.2071 69 14.2673 69H29.6392C30.6993 69 31.5323 68.1671 31.5323 67.1069C31.5323 66.0468 30.6993 65.2138 29.6392 65.2138H23.8085V55.7484C34.0312 54.764 41.9822 46.4343 41.9822 36.3631Z" fill="#979797"/>
</svg>