<svg xmlns="http://www.w3.org/2000/svg" width="26" height="25" viewBox="0 0 26 25" fill="none">
  <path d="M13.4729 1.04476C13.6294 0.905279 13.8531 0.870668 14.0447 0.956904L14.0078 1.03898L14.0445 0.956819C14.2362 1.04254 14.3592 1.23265 14.3592 1.44236V23.5577C14.3592 23.7668 14.2364 23.9573 14.0452 24.0431C14.0451 24.0432 14.0451 24.0432 14.0451 24.0432L14.0082 23.9611C13.9503 23.9872 13.8884 24 13.8269 24C13.7207 24 13.6159 23.962 13.5336 23.8885L13.4729 1.04476ZM13.4729 1.04476C13.4729 1.04476 13.4729 1.04476 13.4729 1.04477L5.68115 7.98696H1.44231C1.14851 7.98696 0.91 8.22491 0.91 8.51927V16.4808C0.91 16.7751 1.14851 17.0131 1.44231 17.0131H5.645L13.4737 23.9557L13.4729 1.04476ZM1.97461 9.05157H5.33307V15.9485H1.97461V9.05157ZM6.39768 8.77414L13.2946 2.62943V22.3739L6.39768 16.2576V8.77414Z" fill="black" stroke="black" stroke-width="0.18"/>
  <path d="M16.4695 8.70394L16.4695 8.70387C16.6021 8.44202 16.9228 8.33657 17.1844 8.46866L16.4695 8.70394ZM16.4695 8.70394C16.3369 8.96643 16.4428 9.28682 16.7052 9.41888C17.8758 10.0096 18.6028 11.1895 18.6024 12.4997V12.4997M16.4695 8.70394L18.6024 12.4997M18.6024 12.4997C18.6024 13.8181 17.8689 15.0019 16.6876 15.5891L18.6024 12.4997ZM17.1614 16.5429L17.1613 16.5429C17.0851 16.5808 17.0041 16.5983 16.9249 16.5983C16.7298 16.5983 16.5413 16.4904 16.448 16.303C16.448 16.3029 16.448 16.3029 16.448 16.3029L16.5286 16.2628L17.1614 16.5429ZM17.1614 16.5429C18.7068 15.7745 19.667 14.2249 19.6665 12.5002M17.1614 16.5429L19.6665 12.5002M19.6665 12.5002C19.6674 10.7863 18.7159 9.2412 17.1844 8.46868L19.6665 12.5002Z" fill="black" stroke="black" stroke-width="0.18"/>
  <path d="M18.7805 6.39742L18.7805 6.39742C18.9491 6.15812 19.2806 6.09824 19.522 6.26816M18.7805 6.39742L19.522 6.26819C19.522 6.26818 19.522 6.26817 19.522 6.26816M18.7805 6.39742L18.7804 6.39758C18.6116 6.63817 18.6697 6.97023 18.9102 7.13944L18.9102 7.13947C20.656 8.36599 21.6988 10.3696 21.6988 12.5C21.6988 14.6431 20.6464 16.6541 18.8832 17.8788L18.8832 17.8789C18.642 18.0466 18.5825 18.3782 18.75 18.6197M18.7805 6.39742L19.491 18.7534M19.522 6.26816C21.5513 7.69373 22.7629 10.0229 22.7638 12.5V12.5C22.7638 14.9923 21.5401 17.3296 19.491 18.7534M19.522 6.26816L19.491 18.7534M19.491 18.7534L19.4397 18.6795L19.4911 18.7534C19.491 18.7534 19.491 18.7534 19.491 18.7534ZM19.491 18.7534C19.3985 18.8177 19.2924 18.8486 19.1876 18.8486C19.0196 18.8486 18.8534 18.7689 18.75 18.6197M18.75 18.6197C18.75 18.6197 18.75 18.6197 18.75 18.6198L18.824 18.5685L18.75 18.6197Z" fill="black" stroke="black" stroke-width="0.18"/>
  <path d="M21.7444 4.06326L21.7442 4.0631C21.5124 3.88289 21.1782 3.92307 20.9971 4.1548L20.997 4.15488C20.8162 4.38675 20.8565 4.72054 21.0881 4.90206L21.0882 4.90212C23.4438 6.74411 24.7946 9.51291 24.7946 12.4999C24.7946 15.4892 23.4416 18.2606 21.082 20.1035L21.082 20.1035C20.8505 20.2845 20.8094 20.6193 20.9905 20.8505C21.0954 20.9851 21.2521 21.0552 21.4103 21.0552C21.5247 21.0552 21.6404 21.0185 21.7378 20.9424C24.3568 18.8965 25.8593 15.8193 25.8593 12.4999C25.8593 9.18366 24.3594 6.10871 21.7444 4.06326Z" fill="black" stroke="black" stroke-width="0.18"/>
</svg>