<svg xmlns="http://www.w3.org/2000/svg" width="20" height="19" viewBox="0 0 20 19" fill="none">
  <path d="M10.8806 1.00218C11.0122 1.06105 11.0967 1.19157 11.0967 1.3356V18.1134C11.0967 18.2571 11.0123 18.3879 10.881 18.4468M10.8806 1.00218L10.8687 18.4194M10.8806 1.00218C10.749 0.942998 10.5955 0.966772 10.488 1.06254L4.56594 6.33894H1.33556C1.13378 6.33894 0.97 6.50235 0.97 6.7045V12.7445C0.97 12.9467 1.13378 13.1101 1.33556 13.1101H4.53846M10.8806 1.00218L10.4887 18.3868L4.53846 13.1101M10.881 18.4468L10.8687 18.4194M10.881 18.4468C10.881 18.4468 10.881 18.4468 10.881 18.4468L10.8687 18.4194M10.881 18.4468C10.8331 18.4684 10.7819 18.479 10.7311 18.479C10.6435 18.479 10.5568 18.4476 10.4888 18.3869L10.5087 18.3644C10.5711 18.4201 10.6506 18.449 10.7311 18.449C10.7778 18.449 10.8248 18.4392 10.8687 18.4194M4.53846 13.1101H4.54985V13.0801L4.52995 13.1025L4.53846 13.1101ZM1.70111 7.07006H4.32556V12.379H1.70111V7.07006ZM5.05668 6.8807L10.3656 2.1508V17.3004L5.05668 12.5924V6.8807Z" fill="black" stroke="black" stroke-width="0.06"/>
  <path d="M12.77 6.86172L12.77 6.8617C12.8611 6.68185 13.0814 6.60945 13.261 6.70015M12.77 6.86172L13.261 6.70015M12.77 6.86172C12.679 7.04196 12.7517 7.262 12.932 7.35268C13.8329 7.8073 14.3926 8.7157 14.3922 9.72411V9.72412L12.77 6.86172ZM13.261 6.70015C14.41 7.27972 15.1237 8.43868 15.123 9.72447M13.261 6.70015L15.123 9.72447M15.123 9.72447C15.1234 11.0184 14.4032 12.1807 13.2437 12.7572M15.123 9.72447L13.2437 12.7572M13.2437 12.7572L13.2437 12.7572C13.1914 12.7832 13.1358 12.7953 13.0814 12.7953C12.9473 12.7953 12.8178 12.7211 12.7539 12.5924C12.7539 12.5924 12.7538 12.5924 12.7538 12.5924L12.7807 12.579L13.2437 12.7572Z" fill="black" stroke="black" stroke-width="0.06"/>
  <path d="M15.0298 5.02802C14.8641 4.91137 14.6364 4.9524 14.5206 5.11682L14.5206 5.11687L15.0298 5.02803C15.0298 5.02803 15.0298 5.02802 15.0298 5.02802ZM15.0298 5.02802C16.5592 6.10238 17.4723 7.85776 17.473 9.7245V9.72451C17.473 11.6027 16.5507 13.3642 15.0065 14.4372M15.0298 5.02802L15.0065 14.4372M15.0065 14.4372C14.9429 14.4814 14.8701 14.5026 14.7981 14.5026C14.6827 14.5026 14.5686 14.4478 14.4976 14.3454C14.4976 14.3454 14.4976 14.3454 14.4976 14.3454L14.5223 14.3283L15.0065 14.4372Z" fill="black" stroke="black" stroke-width="0.06"/>
  <path d="M16.2195 16.0175L16.1958 16.036C16.2679 16.1285 16.3754 16.1767 16.4842 16.1767C16.5628 16.1767 16.6422 16.1515 16.7091 16.0992C18.6867 14.5543 19.8211 12.231 19.8211 9.7245C19.8211 7.2204 18.6887 4.8987 16.7141 3.35416L16.7141 3.35411C16.5548 3.23026 16.3252 3.25795 16.2009 3.41703L16.2009 3.41706C16.0766 3.57637 16.1044 3.80558 16.2634 3.93024L16.2634 3.93026C18.0598 5.33493 19.09 7.4466 19.09 9.7245C19.09 12.0041 18.0581 14.1178 16.2587 15.5231L16.2587 15.5231C16.0997 15.6474 16.0715 15.8773 16.1959 16.036L16.2195 16.0175ZM16.2195 16.0175C16.1054 15.8719 16.1312 15.6608 16.2772 15.5467C18.0838 14.1357 19.12 12.0133 19.12 9.7245C19.12 7.43735 18.0855 5.31697 16.2819 3.90663C16.1359 3.7922 16.1104 3.58181 16.2245 3.43551C16.3386 3.28954 16.5493 3.26404 16.6956 3.37779C18.663 4.91665 19.7911 7.22964 19.7911 9.7245C19.7911 12.2217 18.661 14.5364 16.6906 16.0756C16.6292 16.1236 16.5564 16.1467 16.4842 16.1467C16.3842 16.1467 16.2856 16.1024 16.2195 16.0175Z" fill="black" stroke="black" stroke-width="0.06"/>
</svg>