<svg xmlns="http://www.w3.org/2000/svg" width="26" height="17" viewBox="0 0 26 17" fill="none">
    <path d="M1.46263 6.01055H16.7505C16.9867 6.01055 17.18 5.81725 17.18 5.58099C17.18 5.34474 16.9867 5.15144 16.7505 5.15144H1.46263L5.88705 0.731317C6.05458 0.563791 6.05458 0.293171 5.88705 0.125645C5.71952 -0.0418816 5.4489 -0.0418816 5.28138 0.125645L0.126719 5.2803C0.0880587 5.31896 0.0536944 5.36621 0.0322166 5.42206C-0.0107389 5.52515 -0.0107389 5.64542 0.0322166 5.74852C0.0536944 5.80006 0.0837632 5.84732 0.126719 5.89027L5.28138 11.0449C5.36299 11.1222 5.47038 11.1652 5.58207 11.1652C5.69375 11.1652 5.80114 11.1222 5.88705 11.0406C6.05458 10.8731 6.05458 10.6025 5.88705 10.435L1.46263 6.01055Z" fill="black"/>
    <path d="M25.7367 11.3285C25.7797 11.2254 25.7797 11.1051 25.7367 11.002C25.7152 10.9505 25.6852 10.9032 25.6422 10.8603L20.4875 5.7056C20.32 5.53807 20.0494 5.53807 19.8819 5.7056C19.7143 5.87313 19.7143 6.14375 19.8819 6.31127L24.302 10.7357H9.01842C8.78217 10.7357 8.58887 10.929 8.58887 11.1652C8.58887 11.4015 8.78217 11.5948 9.01842 11.5948H24.3063L19.8819 16.0149C19.7143 16.1824 19.7143 16.4531 19.8819 16.6206C19.9678 16.7065 20.0752 16.7495 20.1868 16.7495C20.2985 16.7495 20.4059 16.7065 20.4918 16.6249L25.6465 11.4702C25.6852 11.4316 25.7152 11.38 25.7367 11.3285Z" fill="black"/>
</svg>