<svg width="18" height="12" viewBox="0 0 18 12" fill="none" xmlns="http://www.w3.org/2000/svg">
<path d="M17.1478 5.74852C17.1908 5.64542 17.1908 5.52515 17.1478 5.42206C17.1264 5.37051 17.0963 5.32326 17.0533 5.2803L11.8987 0.125645C11.7311 -0.0418816 11.4605 -0.0418816 11.293 0.125645C11.1255 0.293171 11.1255 0.563791 11.293 0.731317L15.7131 5.15573H0.429555C0.1933 5.15573 0 5.34903 0 5.58529C0 5.82154 0.1933 6.01484 0.429555 6.01484H15.7174L11.293 10.435C11.1255 10.6025 11.1255 10.8731 11.293 11.0406C11.3789 11.1265 11.4863 11.1695 11.598 11.1695C11.7097 11.1695 11.8171 11.1265 11.903 11.0449L17.0576 5.89027C17.0963 5.85161 17.1264 5.80006 17.1478 5.74852Z" fill="black"/>
</svg>
