<svg width="32" height="32" viewBox="0 0 32 32" fill="none" xmlns="http://www.w3.org/2000/svg">
<path fill-rule="evenodd" clip-rule="evenodd" d="M21.6612 13.8333H10.3388L11.2313 22.7577C11.3205 23.652 12.0736 24.3333 12.9725 24.3333H19.0275C19.9264 24.3333 20.6795 23.652 20.7687 22.7577L21.6612 13.8333ZM12.5 11.5H9.58333C9.26133 11.5 9 11.628 9 11.95C9 12.272 9.26133 12.403 9.58333 12.403H22.4167C22.7387 12.403 23 12.272 23 11.95C23 11.628 22.7387 11.5 22.4167 11.5H19.5V9.75C19.5 8.78342 18.7166 8 17.75 8C16.7333 8 15.2667 8 14.25 8C13.2834 8 12.5 8.78342 12.5 9.75V11.5ZM18.5833 11.5H13.4167V9.75C13.4167 9.428 13.678 8.9 14 8.9H18C18.322 8.9 18.5833 9.428 18.5833 9.75V11.5Z" fill="#595959"/>
</svg>
